<?xml version="1.0" encoding="utf-8"?>
<!-- Generator: Adobe Illustrator 23.0.2, SVG Export Plug-In . SVG Version: 6.00 Build 0)  -->
<svg version="1.1" id="Capa_1" xmlns="http://www.w3.org/2000/svg" xmlns:xlink="http://www.w3.org/1999/xlink" x="0px" y="0px"
	 viewBox="0 0 90 50" style="enable-background:new 0 0 90 50;" xml:space="preserve">
<style type="text/css">
	.st0{fill:#FFFFFF;}
</style>
<g>
	<path class="st0" d="M34.7,8.7c1,1.5,1.4,3.2,1.2,5.1c-0.1,1.6-0.8,3-2,4.1c-0.4,0.4-0.9,0.7-1.4,1.1c0.1,0,0.1,0.1,0.2,0.1
		c3.8,1.6,7.6,3.2,11.3,4.8c0.2,0.1,0.3,0.1,0.4,0c1.6-0.7,3.3-1.4,4.9-2c5-1.9,10-3.5,15.2-4.7c0.2-0.1,0.5-0.1,0.7-0.2
		c-0.1-0.1-0.1-0.1-0.2-0.1c-0.4-0.1-0.8-0.3-1.2-0.4c-2.8-1-5.4-2.2-8-3.6c-2.7-1.4-5.3-2.9-7.9-4.5c-3.5-2.4-7-4.9-10.3-7.5
		c-0.4-0.3-0.8-0.6-1.2-0.9c-0.7,1.2-1.6,2.3-2.7,3.3c-1,1-2.2,1.8-3.4,2.7c0.2,0,0.3,0.1,0.3,0.1C32.4,6.4,33.8,7.2,34.7,8.7z"/>
	<path class="st0" d="M44.6,35.7c0.1-0.1,0.2,0,0.3,0c1.3,0.8,2.6,1.7,3.9,2.5c0.1,0.1,0.2,0.1,0.4,0c0.9-0.4,1.7-0.8,2.6-1.1
		c0.1,0,0.2-0.1,0.3-0.2c-1.6-1-3.2-2-4.8-3c0.1-0.1,0.2-0.2,0.2-0.2c0.7-0.8,1.1-1.7,1.1-2.8c0-0.8-0.2-1.5-0.6-2.1
		c-0.8-1.4-1.9-2.2-3.5-2.2c-0.8,0-1.6,0.2-2.3,0.5c-1.4,0.6-2.8,1.3-4.3,1.9c-0.4,0.2-0.9,0.4-1.3,0.6c1.8,4,3.5,7.9,5.2,11.9
		c0.9-0.4,1.8-0.8,2.6-1.2c-0.6-1.3-1.1-2.5-1.7-3.8c0.1,0,0.1-0.1,0.2-0.1C43.5,36.1,44,35.9,44.6,35.7z M41.7,34.2
		c-0.5-1.1-1-2.2-1.5-3.4c0.3-0.1,0.5-0.2,0.8-0.4c0.6-0.3,1.3-0.6,1.9-0.8c0.4-0.2,0.9-0.3,1.4-0.2c0.8,0.2,1.2,0.7,1.4,1.4
		c0.2,0.7-0.1,1.4-0.8,1.9c-0.1,0.1-0.3,0.2-0.5,0.3C43.5,33.3,42.6,33.7,41.7,34.2z"/>
	<path class="st0" d="M56.9,30.3c0.1-0.1,0.2,0,0.3,0c1.3,0.8,2.6,1.7,3.9,2.5c0.1,0,0.2,0,0.3,0c0.9-0.4,1.9-0.8,2.8-1.2
		c0,0,0.1-0.1,0.2-0.1c-1.6-1-3.2-2-4.8-3c0.1-0.1,0.2-0.1,0.3-0.2c0.7-0.8,1.2-1.7,1.1-2.8c0-0.8-0.2-1.5-0.6-2.1
		c-0.7-1.4-1.9-2.2-3.5-2.2c-0.8,0-1.7,0.2-2.4,0.5c-1.8,0.8-3.6,1.6-5.4,2.4L49,24.2c1.7,4,3.5,7.9,5.2,11.9
		c0.9-0.4,1.8-0.8,2.6-1.2c-0.6-1.3-1.1-2.5-1.7-3.8c0.1,0,0.1-0.1,0.2-0.1C55.7,30.8,56.3,30.5,56.9,30.3z M54.2,28.7
		c-0.1,0-0.1,0-0.2,0.1c-0.5-1.1-1-2.2-1.5-3.4c0.5-0.2,0.9-0.4,1.4-0.6c0.6-0.3,1.2-0.6,1.9-0.8c1.3-0.4,2.4,0.6,2.3,2
		c-0.1,0.5-0.3,0.9-0.7,1.2c-0.3,0.2-0.5,0.3-0.8,0.5C55.7,28,54.9,28.3,54.2,28.7z"/>
	<path class="st0" d="M39.4,26.2c-0.1,0-0.2,0-0.3,0c-1.1,0.1-2.1,0.2-3.2,0.3c-0.1,0-0.2,0-0.3-0.1c-1.2-1-2.4-2.1-3.6-3.2
		c-1.1-0.9-2.1-1.9-3.2-2.8c-0.1-0.1-0.2-0.1-0.3-0.1c-0.5,0-0.9,0.1-1.4,0.2c-0.2,0-0.4,0.1-0.5,0.1c0.3,1.5,0.5,3.1,0.8,4.6
		c0.1,0.7,0.2,1.3,0.3,2c0,0.1,0,0.2-0.2,0.2s-0.5,0.1-0.7,0.1c-0.4,0.1-0.8,0.1-1.2,0.2c0.9,2.4,1.6,4.7,2.3,7.2
		C31.2,31.2,35.2,28.6,39.4,26.2z"/>
	<path class="st0" d="M64,21.1c-0.9,1.1-1.2,2.3-1.1,3.6c0.1,1.3,0.6,2.4,1.5,3.4c1.1,1.2,2.5,1.7,4.2,1.5s3-1,4-2.4
		c0.3-0.4,0.5-0.9,0.6-1.4c-0.7-0.2-1.4-0.4-2.1-0.7c-0.1,0.3-0.3,0.5-0.4,0.7c-0.7,1-1.6,1.5-2.9,1.4c-0.6-0.1-1.1-0.5-1.5-1
		c2.1-0.9,4.2-1.9,6.3-2.8c-0.2-0.8-0.6-1.5-1.1-2.1c-1.1-1.4-2.5-2.3-4.4-2C66,19.5,64.9,20.1,64,21.1z M66.8,21.8
		c1.1-0.5,2.1,0.2,2.7,1.1c-1.3,0.6-2.5,1.1-3.8,1.7C65.3,23.5,65.7,22.3,66.8,21.8z"/>
	<path class="st0" d="M35.4,44.5c1.5-0.6,2.5-1.6,3-3.2c0-0.2,0-0.2-0.1-0.3c-0.6-0.2-1.1-0.3-1.7-0.5c-0.2-0.1-0.2,0-0.3,0.1
		c-0.5,1.1-1.3,1.7-2.5,1.9c-0.8,0.1-1.7-0.3-2.1-1c2.1-0.9,4.2-1.8,6.3-2.8c0-0.1,0-0.1,0-0.2c-0.3-0.8-0.7-1.6-1.3-2.2
		c-1.3-1.5-2.8-2.1-4.7-1.6c-1.4,0.4-2.6,1.2-3.2,2.5c-0.7,1.5-0.7,3,0,4.5c0.6,1.4,1.5,2.4,3,2.9C32.9,45.1,34.2,45,35.4,44.5z
		 M30.9,39.9c-0.3-1.1,0-2.2,1-2.7c1.1-0.5,2.1-0.1,2.8,1C33.4,38.8,32.2,39.4,30.9,39.9z"/>
	<path class="st0" d="M26.1,16.6c0.8-0.1,1.6-0.2,2.4-0.4c0.8-0.2,1.6-0.6,2.1-1.3c0.5-0.8,0.6-1.6,0.3-2.5
		c-0.3-1.3-1.3-2.1-2.6-2.1c-0.7,0-1.4,0.1-2.1,0.2c-0.4,0.1-0.8,0.1-1.3,0.2C25.3,12.6,25.6,14.6,26.1,16.6
		C26,16.6,26,16.6,26.1,16.6z"/>
	<path class="st0" d="M73.9,28.4C60,34.5,46.2,40.5,32.3,46.6c0.1,0.2,0.1,0.3,0.2,0.5C46.4,41,60.3,35,74.2,28.9
		C74.1,28.7,74,28.6,73.9,28.4z"/>
	<path class="st0" d="M14.5,11.8c3.2,1.6,5.3,4.3,7.2,7.2c-0.5-2.9-1-5.7-1.5-8.5C18.3,11,16.4,11.4,14.5,11.8z"/>
	<path class="st0" d="M35.9,47c-0.2,0-0.2,0.2-0.3,0.3c0,0.2-0.1,0.5-0.1,0.7c0,0,0,0-0.1,0c-0.2-0.1-0.4-0.3-0.6-0.4
		c-0.1,0-0.2-0.1-0.3,0c-0.3,0.1-0.3,0.1-0.2,0.5c0.2,0.5,0.4,1,0.7,1.6c0.2-0.1,0.3-0.1,0.4-0.2c-0.2-0.4-0.3-0.7-0.5-1.2
		c0.3,0.2,0.6,0.4,0.8,0.5c0.1-0.3,0.1-0.6,0.2-1c0.2,0.4,0.3,0.8,0.5,1.2c0.2-0.1,0.3-0.1,0.4-0.2c-0.3-0.6-0.6-1.3-0.8-1.9
		C36,46.9,36,47,35.9,47z"/>
	<path class="st0" d="M48.1,41.6c0.2,0.4,0.3,0.7,0.5,1.1c-0.4-0.2-0.7-0.4-1-0.6c-0.3-0.2-0.4-0.1-0.7,0.1c0.3,0.6,0.5,1.2,0.8,1.9
		c0.2-0.1,0.3-0.1,0.4-0.2c-0.2-0.4-0.3-0.7-0.5-1.1c0.4,0.2,0.8,0.4,1.1,0.6c0.2,0.1,0.4,0.1,0.6,0c-0.3-0.6-0.5-1.2-0.8-1.9
		C48.4,41.5,48.3,41.5,48.1,41.6z"/>
	<path class="st0" d="M72.2,31c0.2,0.4,0.3,0.7,0.5,1l0,0c-0.3-0.2-0.7-0.3-1-0.5s-0.5-0.1-0.7,0c0.3,0.6,0.5,1.2,0.8,1.9
		c0.2-0.1,0.3-0.1,0.4-0.2c-0.2-0.4-0.3-0.7-0.5-1.1c0.4,0.2,0.8,0.4,1.2,0.6c0.3,0.1,0.3,0.1,0.6-0.1c-0.3-0.6-0.5-1.2-0.8-1.9
		C72.5,30.9,72.4,30.9,72.2,31z"/>
	<path class="st0" d="M74.4,30.1c-0.6,0-1.1,0.5-1.1,1.1s0.5,1.1,1,1.1c0.6,0,1.1-0.5,1.1-1.1C75.5,30.6,75,30.1,74.4,30.1z
		 M74.4,31.8c-0.3,0-0.6-0.3-0.6-0.7c0-0.3,0.3-0.6,0.6-0.6c0.3,0,0.6,0.3,0.6,0.7C75,31.5,74.7,31.8,74.4,31.8z"/>
	<path class="st0" d="M46,42.6c-0.6,0-1.1,0.5-1.1,1.1s0.5,1.1,1,1.1c0.6,0,1.1-0.5,1.1-1.1C47.1,43.1,46.6,42.6,46,42.6z M46,44.3
		c-0.3,0-0.6-0.3-0.6-0.6s0.3-0.6,0.6-0.6s0.6,0.3,0.6,0.6S46.3,44.3,46,44.3z"/>
	<path class="st0" d="M40.1,46.5c0.2-0.3,0.1-0.6,0-0.8c-0.2-0.3-0.4-0.3-0.7-0.2c-0.4,0.1-0.7,0.3-1.1,0.4c0.3,0.7,0.6,1.3,0.8,1.9
		c0.2-0.1,0.3-0.1,0.4-0.2c-0.1-0.2-0.2-0.4-0.2-0.6c0.2-0.1,0.3-0.2,0.5,0c0.1,0.1,0.2,0.2,0.4,0.2c0.1,0,0.1,0,0.2,0
		c0.1,0,0.3-0.1,0.4-0.2C40.6,46.9,40.3,46.8,40.1,46.5C40.1,46.6,40.1,46.5,40.1,46.5z M39.6,46.4c-0.1,0.1-0.3,0.1-0.4,0.2
		c-0.1-0.2-0.1-0.3-0.2-0.5c0.2-0.1,0.3-0.1,0.5-0.2c0.2,0,0.3,0,0.3,0.2C39.8,46.2,39.7,46.4,39.6,46.4z"/>
	<path class="st0" d="M65.9,34c-0.5-0.1-0.9,0.3-1.4,0.4c0.3,0.6,0.6,1.3,0.8,1.9c0.3-0.1,0.6-0.3,0.9-0.4c0.4-0.2,0.6-0.7,0.5-1.1
		C66.6,34.4,66.3,34,65.9,34z M66.2,35.1c0,0.4-0.4,0.5-0.7,0.6c-0.2-0.4-0.3-0.7-0.5-1.1c0.3-0.1,0.5-0.3,0.8-0.1
		C66.2,34.6,66.3,34.8,66.2,35.1z"/>
	<path class="st0" d="M51,40.4c-0.5,0-0.8,0.3-1.2,0.4c0.3,0.7,0.6,1.3,0.8,1.9c0.3-0.2,0.7-0.3,1-0.5c0.4-0.2,0.5-0.7,0.4-1.1
		C51.9,40.7,51.5,40.4,51,40.4z M51.6,41.6c0,0.4-0.3,0.5-0.7,0.6c-0.2-0.4-0.3-0.7-0.5-1.1c0.3-0.1,0.6-0.3,0.9-0.1
		C51.5,41.1,51.6,41.3,51.6,41.6z"/>
	<path class="st0" d="M54.8,39.6c-0.3,0.1-0.6,0.2-0.8,0.4c0.1,0.1,0.1,0.3,0.2,0.4c0.1-0.1,0.3-0.1,0.4-0.2c0,0.1,0.1,0.2,0,0.3
		c-0.1,0.2-0.4,0.3-0.7,0.2s-0.5-0.3-0.5-0.6s0.1-0.5,0.4-0.6c0.2,0,0.3,0,0.5,0c0-0.1,0.1-0.2,0.1-0.4c-0.3-0.1-0.6-0.1-0.9,0.1
		c-0.4,0.2-0.6,0.5-0.6,1c0,0.4,0.2,0.8,0.6,1c0.5,0.2,1.3-0.1,1.5-0.6v-0.1C55.1,40.1,55,39.9,54.8,39.6z"/>
	<path class="st0" d="M41.4,46.4c-0.1-0.1-0.1-0.2-0.2-0.4c0.3-0.1,0.6-0.3,0.9-0.4c-0.1-0.1-0.1-0.3-0.2-0.4
		c-0.3,0.1-0.6,0.3-0.9,0.4c-0.1-0.1-0.1-0.2-0.2-0.3c0.3-0.1,0.7-0.3,1-0.4c-0.1-0.1-0.1-0.3-0.2-0.4c-0.5,0.2-1,0.4-1.4,0.6
		c0.3,0.6,0.6,1.3,0.8,1.9c0.5-0.2,1-0.4,1.4-0.6c-0.1-0.1-0.1-0.3-0.2-0.4C42,46.1,41.7,46.2,41.4,46.4z"/>
	<path class="st0" d="M70.3,33.6c-0.1-0.1-0.1-0.2-0.2-0.4c0.3-0.1,0.6-0.3,0.9-0.4c-0.1-0.1-0.1-0.3-0.2-0.4
		c-0.3,0.1-0.6,0.3-0.9,0.4c-0.1-0.1-0.1-0.2-0.1-0.3c0.3-0.2,0.7-0.3,1-0.4c-0.1-0.1-0.1-0.3-0.2-0.4c-0.5,0.2-0.9,0.4-1.4,0.6
		c0.3,0.6,0.6,1.3,0.8,1.9c0.5-0.2,1-0.4,1.4-0.6c-0.1-0.1-0.1-0.3-0.2-0.4C70.9,33.4,70.6,33.5,70.3,33.6z"/>
	<path class="st0" d="M58.4,37.2c-0.1-0.1-0.2,0-0.3,0s-0.2,0.1-0.2,0.2c0,0.5,0,1,0,1.5c0,0.2,0,0.4,0,0.7c0.1-0.1,0.2-0.1,0.3-0.1
		s0.2-0.1,0.1-0.2c-0.1-0.3,0.1-0.4,0.3-0.5c0,0,0.1,0,0.1-0.1c0.2-0.1,0.4-0.1,0.5,0.1c0,0.1,0.1,0.1,0.2,0.1
		c0.1,0,0.3-0.1,0.4-0.2v-0.1C59.4,38.1,58.9,37.7,58.4,37.2z M58.3,38.4c0-0.2,0-0.4,0-0.6c0.1,0.1,0.3,0.3,0.4,0.4
		C58.6,38.3,58.5,38.3,58.3,38.4z"/>
	<path class="st0" d="M37.5,46.3c-0.3,0.1-0.6,0.2-0.9,0.4c0.3,0.7,0.6,1.3,0.8,1.9c0.2-0.1,0.3-0.1,0.4-0.2
		c-0.1-0.2-0.2-0.4-0.2-0.5c0.2-0.1,0.4-0.2,0.5-0.3c0.3-0.2,0.4-0.6,0.2-0.9C38.2,46.3,37.9,46.2,37.5,46.3z M37.4,47.4
		c-0.1-0.2-0.2-0.4-0.2-0.5c0.2-0.1,0.4-0.3,0.6-0.1c0.1,0,0.1,0.2,0.1,0.3C37.9,47.3,37.6,47.3,37.4,47.4z"/>
	<path class="st0" d="M68.9,33.5c-0.1,0-0.2,0-0.3,0c-0.1,0-0.2,0-0.3,0c-0.1,0-0.1,0-0.1-0.1s0-0.1,0.1-0.2c0.1,0,0.1-0.1,0.2-0.1
		s0.3,0,0.5,0c0-0.1,0-0.2,0.1-0.2c0.1-0.1,0-0.2-0.1-0.2c-0.3,0-0.5,0-0.7,0.1C68,33,67.9,33.3,68,33.6s0.3,0.5,0.7,0.4
		c0.1,0,0.3-0.1,0.4-0.1s0.2,0.1,0.2,0.1c0,0.1,0,0.2-0.1,0.2c-0.1,0.1-0.2,0.1-0.4,0.1c-0.1,0-0.3,0-0.4,0c0,0.1-0.1,0.3-0.1,0.4
		c0.4,0.2,1,0.1,1.3-0.2c0.2-0.2,0.2-0.4,0.1-0.7C69.3,33.6,69.1,33.5,68.9,33.5z"/>
	<path class="st0" d="M43.4,44.7c-0.2,0-0.4,0-0.5,0.1c-0.1,0-0.3,0-0.3-0.1s0.1-0.2,0.2-0.2c0.2,0,0.3,0,0.5-0.1
		c0-0.1,0-0.2,0.1-0.4c-0.3-0.1-0.7,0-1,0.2s-0.3,0.5-0.2,0.8s0.3,0.4,0.7,0.3c0.2,0,0.3,0,0.5-0.1c0.1,0,0.1,0.1,0.2,0.1
		c0,0,0,0.1-0.1,0.2c-0.1,0.1-0.1,0.1-0.2,0.1c-0.2,0-0.4,0-0.6,0c0,0.1-0.1,0.2-0.1,0.4c0.5,0.1,0.9,0.1,1.2-0.2
		c0.2-0.2,0.3-0.4,0.2-0.7C43.9,44.8,43.7,44.7,43.4,44.7z"/>
	<path class="st0" d="M63.4,36.6c-0.1-0.2-0.1-0.4-0.1-0.6c0.1-0.4,0.1-0.7,0.2-1.2c-0.1,0-0.2,0.1-0.2,0.1C63.1,35,63,35.1,63,35.3
		s0,0.4-0.1,0.6c-0.2-0.2-0.4-0.3-0.6-0.4c-0.1,0-0.2-0.1-0.2-0.1c-0.1,0-0.3,0.1-0.4,0.2c0.1,0.1,0.1,0.1,0.2,0.2
		c0.3,0.2,0.6,0.4,0.8,0.6c0.1,0.1,0.2,0.2,0.3,0.3c0.1,0.2,0.2,0.4,0.2,0.5C63.6,37.1,63.6,37.1,63.4,36.6
		C63.4,36.7,63.4,36.6,63.4,36.6z"/>
	<path class="st0" d="M57.4,38c-0.1-0.1-0.1-0.3-0.2-0.4c-0.5,0.2-1,0.5-1.6,0.7c0.1,0.1,0.1,0.3,0.2,0.4c0.2-0.1,0.4-0.2,0.6-0.2
		c0.2,0.5,0.4,1,0.7,1.5c0.2-0.1,0.3-0.1,0.4-0.2c-0.2-0.5-0.4-1-0.6-1.5C57,38.2,57.2,38.1,57.4,38z"/>
	<path class="st0" d="M60.4,38c-0.2-0.5-0.4-1-0.7-1.5c-0.2,0.1-0.3,0.1-0.4,0.2c0.3,0.6,0.6,1.3,0.8,1.9c0.5-0.2,0.9-0.4,1.4-0.6
		c-0.1-0.2-0.1-0.3-0.2-0.4C61,37.7,60.8,37.8,60.4,38z"/>
	<path class="st0" d="M33.4,48.1c0.3,0.7,0.6,1.3,0.8,1.9c0.2-0.1,0.3-0.1,0.4-0.2c-0.3-0.6-0.6-1.3-0.8-1.9
		C33.7,48,33.5,48,33.4,48.1z"/>
	<path class="st0" d="M66.6,33.5c0.3,0.6,0.6,1.3,0.8,1.9c0.2-0.1,0.3-0.1,0.4-0.2c-0.3-0.6-0.6-1.3-0.8-1.9
		C66.9,33.4,66.7,33.4,66.6,33.5z"/>
	<path class="st0" d="M43.8,43.5c0.3,0.6,0.6,1.3,0.8,1.9c0.2-0.1,0.3-0.1,0.4-0.2c-0.3-0.6-0.6-1.3-0.8-1.9
		C44,43.4,43.9,43.5,43.8,43.5z"/>
	<path class="st0" d="M54.9,38.6c0.3,0.6,0.6,1.3,0.8,1.9c0.2-0.1,0.3-0.1,0.4-0.2c-0.3-0.6-0.6-1.3-0.8-1.9
		C55.2,38.5,55,38.6,54.9,38.6z"/>
	<path class="st0" d="M51.9,39.9c0.3,0.6,0.6,1.3,0.8,1.9c0.2-0.1,0.3-0.1,0.4-0.2c-0.3-0.6-0.6-1.3-0.8-1.9
		C52.2,39.8,52,39.9,51.9,39.9z"/>
	<path class="st0" d="M71.9,30.5c-0.1,0.2-0.2,0.2-0.3,0.2c-0.3,0-0.4,0.2-0.4,0.4l0.1,0.1c0.1,0,0.2,0,0.2-0.1
		c0-0.2,0.2-0.2,0.3-0.2c0.3,0,0.5-0.2,0.4-0.6C72,30.5,71.9,30.5,71.9,30.5z"/>
	<path class="st0" d="M45.8,42.1c-0.1,0-0.3,0-0.4,0c0,0.2-0.1,0.4-0.1,0.6C45.7,42.6,45.8,42.4,45.8,42.1z"/>
</g>
</svg>
