<svg version="1.1" xmlns="http://www.w3.org/2000/svg" xmlns:xlink="http://www.w3.org/1999/xlink" x="0px" y="0px"
width="90px" height="50px" viewBox="0 0 850.28 697.12" style="enable-background:new 0 0 850.28 697.12;"
xml:space="preserve">
<style type="text/css">
.st0{fill:#FFFFFF;}
</style>
<defs>
</defs>
<g>
<path class="st0" d="M281.45,120.9c13.93,21.44,18.93,45.28,16.98,70.58c-1.77,22.87-11.55,42.02-28.46,57.37
   c-5.95,5.4-12.7,9.93-19.32,15.03c0.86,0.39,1.88,0.88,2.92,1.32c52.63,22.08,105.27,44.15,157.87,66.29
   c2.21,0.93,3.94,0.9,6.15-0.03c22.79-9.61,45.43-19.64,68.5-28.52c69.14-26.61,139.8-48.36,212.02-64.94
   c3.36-0.77,6.72-1.56,10.08-2.34c-0.77-0.97-1.59-1.31-2.42-1.6c-5.66-1.95-11.36-3.8-16.99-5.84
   c-38.35-13.89-75.32-30.88-111.49-49.65c-37.54-19.47-74.02-40.78-109.73-63.42C417.34,83.33,368.66,49.3,321.69,12.85
   C316.3,8.66,310.96,4.39,305.38,0c-10.41,17.27-22.99,32.46-37.27,46.31c-14.25,13.83-30.04,25.71-47.03,37.17
   c2.23,0.46,3.52,0.72,4.82,1C249.06,89.53,268.34,100.72,281.45,120.9z"/>
<path class="st0" d="M419.67,497.08c1.6-0.73,2.69-0.61,4.14,0.32c18.11,11.62,36.28,23.15,54.39,34.77
   c1.72,1.1,3.13,1.24,4.99,0.4c11.91-5.3,23.86-10.49,35.8-15.73c1.41-0.62,2.79-1.32,4.71-2.23
   c-22.51-13.97-44.46-27.59-66.58-41.31c1.25-1.34,2.22-2.36,3.17-3.41c10.08-11.21,15.74-24.18,15.35-39.43
   c-0.27-10.57-3.48-20.39-8.41-29.66c-10.52-19.77-26.74-30.45-49.41-30.57c-11.4-0.06-22.26,2.7-32.64,7.19
   c-19.9,8.62-39.72,17.45-59.57,26.19c-6.16,2.71-12.33,5.42-18.77,8.24c24.46,55.6,48.74,110.77,73.08,166.11
   c12.48-5.51,24.61-10.86,36.85-16.26c-7.86-17.82-15.57-35.29-23.35-52.93c1.06-0.5,1.89-0.92,2.74-1.29
   C404.01,504.01,411.87,500.63,419.67,497.08z M379.13,476.14c-6.98-15.82-13.84-31.37-20.83-47.22c3.85-1.7,7.56-3.33,11.28-4.96
   c8.97-3.93,17.92-7.92,26.94-11.76c6.23-2.65,12.76-4.1,19.5-2.77c10.89,2.15,16.33,9.88,18.9,19.89
   c2.6,10.08-1.63,19.65-11.01,26.07c-2.03,1.39-4.16,2.71-6.4,3.72C404.85,464.79,392.15,470.37,379.13,476.14z"/>
<path class="st0" d="M590.82,421.77c1.77-0.8,2.96-0.36,4.43,0.59c18.21,11.65,36.44,23.27,54.73,34.79
   c0.96,0.6,2.74,0.66,3.8,0.21c12.95-5.53,25.84-11.2,38.74-16.85c0.64-0.28,1.21-0.71,2.14-1.27
   c-22.34-13.86-44.32-27.49-67.33-41.76c1.45-0.97,2.67-1.49,3.5-2.37c10.32-11.12,16.15-24.05,15.86-39.48
   c-0.2-10.62-3.29-20.43-8.13-29.73c-10.35-19.9-26.62-30.66-49.21-30.96c-11.76-0.16-23.01,2.83-33.76,7.52
   c-25.2,11-50.36,22.08-75.53,33.14c-0.67,0.29-1.29,0.71-2.04,1.13c24.36,55.36,48.64,110.54,73.02,165.95
   c12.44-5.49,24.57-10.84,36.85-16.25c-7.85-17.81-15.55-35.28-23.31-52.88c0.97-0.51,1.69-0.94,2.46-1.28
   C574.97,428.76,582.93,425.34,590.82,421.77z M552.88,399.69c-0.78,0.34-1.57,0.64-2.68,1.09c-6.97-15.82-13.81-31.36-20.76-47.13
   c6.41-2.83,12.6-5.7,18.9-8.32c8.76-3.65,17.35-7.99,26.45-10.46c18.42-5.01,33.89,8.95,31.72,27.98
   c-0.8,7.02-4.75,12.43-10.41,16.38c-3.64,2.53-7.65,4.6-11.69,6.45C573.96,390.47,563.4,395.04,552.88,399.69z"/>
<path class="st0" d="M347.4,365.58c-1.37,0.07-2.75,0.07-4.12,0.21c-14.86,1.49-29.71,3.03-44.58,4.43
   c-1.23,0.12-2.85-0.42-3.79-1.23c-16.71-14.59-33.35-29.27-50-43.94c-14.72-12.97-29.4-25.97-44.18-38.87
   c-0.96-0.84-2.66-1.34-3.94-1.22c-6.52,0.63-13.02,1.49-19.53,2.31c-2.49,0.32-4.96,0.76-7.49,1.16
   c3.73,21.54,7.36,42.61,11.02,63.68c1.58,9.08,3.19,18.16,4.83,27.23c0.34,1.89-0.12,2.72-2.21,2.94
   c-3.4,0.35-6.75,1.06-10.12,1.65c-5.41,0.93-10.81,1.89-16.63,2.9c12.3,32.9,22.76,65.99,31.44,100.1
   C233.28,435.56,288.58,398.4,347.4,365.58z"/>
<path class="st0" d="M690.61,294.19c-12.2,14.75-16.89,31.9-14.99,50.86c1.82,18.12,8.79,34.09,21.34,47.25
   c15.78,16.54,35.45,23.34,58.06,20.26c23.22-3.16,42.38-13.69,55.7-33.52c3.94-5.86,6.68-12.32,8.46-19.49
   c-9.73-3.11-19.27-6.15-28.71-9.17c-2.02,3.64-3.56,7.17-5.76,10.24c-9.85,13.76-22.92,21.37-40.25,19.23
   c-8.96-1.1-15.45-6.64-20.82-13.9c29.56-12.99,58.8-25.85,88.19-38.77c-3.4-10.73-8.2-20.51-14.85-29.28
   c-15.23-20.08-34.69-31.65-60.7-28.28C718.08,271.98,702.45,279.88,690.61,294.19z M729.41,304.37
   c15.57-6.45,29.93,2.15,37.26,15.38c-17.75,7.82-35.49,15.64-53.44,23.55C708.83,326.96,713.52,310.95,729.41,304.37z"/>
<path class="st0" d="M291.67,620.08c20.39-8.67,35.02-22.88,41.82-44.44c0.67-2.14,0.33-3-1.85-3.66
   c-7.83-2.36-15.64-4.79-23.37-7.44c-2.47-0.85-3.4-0.25-4.42,2.01c-6.89,15.17-18.59,24.23-35.07,26.96
   c-11.08,1.84-24.22-4.46-29.86-14.32c29.24-12.86,58.46-25.71,87.8-38.62c-0.23-0.9-0.37-1.64-0.61-2.33
   c-3.99-11.42-9.54-22-17.45-31.21c-17.55-20.44-39.23-29.37-65.97-22.39c-20.09,5.24-35.92,16.52-45.26,35.51
   c-10.14,20.62-9.4,41.57-0.5,62.38c8.16,19.07,21.44,33.19,41.28,40.24C256.31,629.18,274.23,627.5,291.67,620.08z M228.36,556.59
   c-4.33-15.01-0.38-30.88,13.91-37.88c14.73-7.22,29.94-1.83,39.53,14.34C263.86,540.95,246.11,548.76,228.36,556.59z"/>
<path class="st0" d="M161.19,231.94c11.33-1.96,22.77-3.43,33.95-6.04c11.55-2.69,21.71-8.29,28.71-18.35
   c7.58-10.9,7.96-22.9,4.87-35.29c-4.38-17.61-18.24-28.72-36.35-29.73c-9.99-0.56-19.72,0.92-29.49,2.45
   c-5.7,0.89-11.39,1.85-17.44,2.83c4.9,28.22,9.75,56.14,14.59,84.01C160.64,231.89,160.93,231.99,161.19,231.94z"/>
<path class="st0" d="M828.45,396.22c-193.61,84.51-386.87,168.86-580.36,253.32c1.12,2.55,2.09,4.77,3.14,7.18
   C444.87,572.2,638.19,487.83,831.62,403.4C830.46,400.77,829.48,398.55,828.45,396.22z"/>
<path class="st0" d="M0,165.14c44.76,21.68,73.71,59.66,100.22,100.56c-6.9-39.82-13.81-79.63-20.62-118.89
   C52.78,152.99,26.26,159.1,0,165.14z"/>
<path class="st0" d="M298.06,655.09c-2.52,0.6-3.38,2.26-3.61,4.68c-0.31,3.36-0.87,6.7-1.33,10.06c-0.43-0.09-0.64-0.07-0.79-0.17
   c-2.99-2.03-5.9-4.19-8.98-6.06c-0.93-0.56-2.52-0.78-3.51-0.4c-4.84,1.89-4.81,1.99-2.67,6.85c3.13,7.11,6.27,14.22,9.54,21.64
   c2.11-0.94,3.98-1.77,6.05-2.69c-2.3-5.29-4.52-10.39-7.03-16.14c4.18,2.64,7.77,4.91,11.66,7.37c0.84-4.79,1.56-8.96,2.4-13.78
   c2.55,5.71,4.86,10.87,7.27,16.26c2.1-0.94,3.96-1.78,6.07-2.73c-3.93-8.92-7.73-17.55-11.58-26.3
   C300.16,654.26,299.15,654.83,298.06,655.09z"/>
<path class="st0" d="M469.04,579.98c2.18,5.02,4.26,9.83,6.65,15.37c-5.41-2.98-10.25-5.24-14.63-8.18
   c-3.52-2.36-6.25-1.62-9.38,0.73c3.78,8.61,7.55,17.21,11.5,26.21c2.17-1.03,4.01-1.9,5.99-2.84c-2.29-5.29-4.44-10.26-6.86-15.86
   c5.6,3.1,10.67,5.58,15.37,8.6c3.24,2.09,5.88,1.82,8.93-0.58c-3.81-8.64-7.65-17.34-11.54-26.15
   C472.85,578.26,471.06,579.07,469.04,579.98z"/>
<path class="st0" d="M804.48,432.42c2.16,4.98,4.22,9.74,6.28,14.5c-0.15,0.16-0.3,0.32-0.45,0.49c-4.55-2.52-9.28-4.76-13.59-7.64
   c-3.53-2.37-6.4-1.93-9.59,0.62c3.78,8.61,7.57,17.26,11.45,26.1c2.18-0.97,4.04-1.8,6.05-2.69c-2.29-5.27-4.46-10.28-6.94-15.99
   c5.82,3.22,10.94,6.04,16.05,8.88c3.62,2.01,4.47,1.94,8.2-0.97c-3.76-8.52-7.54-17.09-11.44-25.93
   C808.43,430.69,806.57,431.5,804.48,432.42z"/>
<path class="st0" d="M835.46,419.71c-8.74-0.04-15.7,6.65-15.69,15.07c0.01,8.42,6.46,15.05,14.63,15.04
   c8.82-0.01,15.89-6.83,15.89-15.31C850.28,426.12,843.89,419.74,835.46,419.71z M835.27,443.37c-4.67,0.07-8.66-4.1-8.68-9.07
   c-0.02-4.48,3.93-8.38,8.38-8.27c4.5,0.1,8.35,4.3,8.35,9.12C843.33,439.59,839.69,443.3,835.27,443.37z"/>
<path class="st0" d="M439.23,593.88c-8.68,0.03-15.63,6.75-15.7,15.16c-0.07,8.42,6.31,15.08,14.52,15.15
   c8.54,0.08,15.85-6.81,15.95-15.02C454.09,600.76,447.42,593.85,439.23,593.88z M439.12,617.76c-4.46,0.15-8.78-4.25-8.89-9.05
   c-0.1-4.43,3.85-8.37,8.37-8.34c4.54,0.03,8.43,4.16,8.48,9C447.12,613.86,443.57,617.61,439.12,617.76z"/>
<path class="st0" d="M357.37,648.53c2.62-3.93,2.03-7.7-0.52-11.41c-2.41-3.51-6.01-4.32-9.61-3.19c-5.12,1.61-10,3.99-15.18,6.13
   c4.01,9.09,7.82,17.74,11.69,26.52c2.22-0.99,4.09-1.82,6.09-2.7c-1.25-2.94-2.35-5.54-3.47-8.17c2.39-1.62,4.44-2.31,6.81-0.23
   c1.48,1.3,3.28,2.28,5.05,3.22c0.74,0.39,1.85,0.59,2.6,0.33c1.87-0.64,3.63-1.59,5.85-2.6c-3.56-2.28-6.8-4.36-10.16-6.51
   C356.89,649.31,357.11,648.91,357.37,648.53z M350.02,647.23c-1.9,1.03-3.95,1.8-6.18,2.79c-1.1-2.49-2.05-4.62-3.1-6.98
   c2.29-0.97,4.32-2,6.45-2.68c2.12-0.68,3.96-0.16,4.85,2.19C352.88,644.75,351.83,646.25,350.02,647.23z"/>
<path class="st0" d="M716.22,473.75c-7.3-0.93-12.87,3.58-19.37,5.92c3.93,8.97,7.7,17.55,11.67,26.59
   c4.46-2.07,8.72-3.74,12.66-5.96c5.66-3.2,8.12-9.15,6.81-15.27C726.72,479.06,722.05,474.49,716.22,473.75z M721.4,489.28
   c-0.41,5.39-4.89,6.65-9.2,8.44c-2.23-5.07-4.37-9.9-6.59-14.94c3.66-1.97,7.23-4.14,11.4-1.82
   C720.18,482.71,721.67,485.72,721.4,489.28z"/>
<path class="st0" d="M509.01,563.83c-6.38,0.04-11.22,4.08-17.1,5.86c4,9.08,7.78,17.66,11.79,26.77
   c4.76-2.32,9.37-4.15,13.55-6.69c5.31-3.24,7.41-9.95,5.57-15.76C520.75,567.48,515.69,563.79,509.01,563.83z M516.56,579.54
   c-0.58,5.08-4.74,6.64-9.25,8.22c-2.17-4.91-4.33-9.79-6.61-14.94c4.12-1.92,7.8-4.3,12.02-1.36
   C515.51,573.41,516.93,576.26,516.56,579.54z"/>
<path class="st0" d="M562.4,551.97c-4.09,1.83-7.79,3.47-11.72,5.23c0.86,1.93,1.58,3.53,2.34,5.25c2.04-0.81,3.85-1.52,6.22-2.46
   c0.14,1.67,0.78,3.25,0.26,4.19c-1.51,2.79-6.23,4.29-9.31,3.36c-3.57-1.07-6.32-4.73-6.42-8.56c-0.1-3.76,1.98-6.97,5.65-7.94
   c2.13-0.56,4.44-0.43,7.04-0.64c0.45-1.5,1.01-3.38,1.68-5.62c-4.53-1.53-8.67-0.97-12.64,0.97c-5.65,2.77-8.8,7.44-8.63,13.68
   c0.17,6.09,3.01,10.94,8.79,13.63c7.2,3.36,18.26-1,21.29-8.39c0.2-0.5,0.37-1.18,0.19-1.63
   C565.64,559.39,564.05,555.78,562.4,551.97z"/>
<path class="st0" d="M374.3,646.5c-0.75-1.69-1.45-3.27-2.18-4.92c4.16-1.87,8.03-3.61,12.15-5.46c-0.89-1.96-1.65-3.63-2.46-5.42
   c-4.21,1.81-8.11,3.5-12.18,5.25c-0.73-1.64-1.37-3.08-2.1-4.72c4.65-2.07,9.14-4.07,13.82-6.15c-0.82-1.94-1.55-3.65-2.36-5.57
   c-6.8,3-13.29,5.86-20.06,8.85c3.91,8.87,7.72,17.52,11.64,26.43c6.83-3.01,13.39-5.9,20.15-8.87c-0.79-1.89-1.48-3.52-2.34-5.56
   C383.54,642.47,379.05,644.43,374.3,646.5z"/>
<path class="st0" d="M777.44,469.15c-0.78-1.76-1.44-3.28-2.17-4.94c4.21-1.88,8.15-3.64,12.19-5.44c-0.91-2-1.65-3.61-2.48-5.43
   c-4.17,1.79-8.12,3.49-12.21,5.25c-0.79-1.84-1.39-3.26-2.03-4.73c4.74-2.12,9.15-4.09,13.79-6.16c-0.87-1.92-1.66-3.67-2.48-5.47
   c-6.8,3-13.22,5.83-19.95,8.8c3.93,8.93,7.74,17.58,11.63,26.43c6.83-3.02,13.4-5.92,20.2-8.93c-0.86-1.94-1.58-3.55-2.43-5.47
   C786.76,465.11,782.18,467.09,777.44,469.15z"/>
<path class="st0" d="M611.5,518.68c-1.49-1.44-2.56-0.54-3.78,0.03c-1.37,0.64-3.06,0.76-2.99,3.11c0.19,6.85,0.14,13.7,0.17,20.55
   c0.01,2.9,0,5.81,0,9.19c1.82-0.72,3.1-1.28,4.41-1.73c1.43-0.5,2.33-1.33,1.95-2.94c-0.97-4.13,1.1-6.13,4.81-7.06
   c0.64-0.16,1.27-0.44,1.82-0.8c2.82-1.85,5.13-1.55,7.15,1.31c0.5,0.71,1.81,1.48,2.49,1.3c1.83-0.51,3.53-1.51,5.34-2.35
   c-0.34-0.54-0.45-0.83-0.65-1.01C625.31,531.75,618.34,525.28,611.5,518.68z M610.9,535.46c0-3.08,0-5.69,0-8.49
   c2.07,1.98,3.94,3.78,6.1,5.85C614.91,533.73,613.07,534.52,610.9,535.46z"/>
<path class="st0" d="M320.49,645.6c-4.39,1.44-8.59,3.47-13.22,5.38c4.01,9.1,7.82,17.74,11.71,26.56c2.24-1.04,4.08-1.9,6.03-2.81
   c-1.14-2.73-2.15-5.14-3.15-7.51c2.56-1.41,5.01-2.49,7.16-4c4.35-3.06,5.47-7.91,3.18-12.61
   C330,646.08,325.51,643.95,320.49,645.6z M319.31,661.51c-1.17-2.63-2.18-4.93-3.3-7.47c2.89-1.16,5.3-3.59,8.34-1.94
   c1.08,0.59,2.05,2.66,1.94,3.95C325.93,659.9,322.06,659.74,319.31,661.51z"/>
<path class="st0" d="M758.06,466.81c-1.51,0.05-3.02,0.27-4.53,0.38c-1.51,0.11-3.04,0.34-4.54,0.23
   c-0.71-0.05-1.84-0.66-1.95-1.19c-0.15-0.75,0.25-1.87,0.82-2.43c0.7-0.68,1.77-1.19,2.75-1.33c2.03-0.29,4.1-0.29,6.48-0.42
   c0.2-0.97,0.3-2.2,0.7-3.32c0.76-2.09-0.08-2.7-2.07-2.82c-3.59-0.21-7.01,0.18-10.18,2.01c-4.41,2.55-6.22,6.52-4.83,10.68
   c1.55,4.66,4.82,6.42,10.39,5.59c1.97-0.29,3.95-0.79,5.92-0.78c0.92,0,2.35,0.8,2.6,1.56c0.25,0.74-0.45,2.34-1.19,2.75
   c-1.52,0.85-3.31,1.4-5.04,1.61c-1.72,0.2-3.52-0.17-5.4-0.29c-0.51,1.91-0.99,3.69-1.46,5.44c5.63,2.33,13.54,0.79,17.47-3.23
   c2.64-2.7,3.2-6.11,1.73-9.71C764.3,468.06,761.63,466.69,758.06,466.81z"/>
<path class="st0" d="M403.28,622.78c-2.46,0.08-4.9,0.53-7.36,0.7c-1.5,0.11-3.55,0.27-3.49-1.78c0.04-1.07,1.6-2.64,2.78-2.99
   c2.2-0.66,4.61-0.59,7.35-0.86c0.31-1.51,0.69-3.4,1.07-5.27c-4.82-1.48-10.38-0.56-14.06,2.2c-3.58,2.68-4.77,6.68-3.17,10.6
   c1.59,3.88,4.77,5.45,9.54,4.79c2.35-0.32,4.71-0.66,7.08-0.7c0.73-0.01,1.88,0.78,2.1,1.45c0.22,0.67-0.23,1.89-0.81,2.44
   c-0.78,0.75-1.91,1.41-2.96,1.55c-2.5,0.32-5.04,0.3-8.02,0.43c-0.44,1.59-0.92,3.37-1.47,5.37c6.42,1.56,12.05,1.02,17-3.05
   c2.99-2.46,3.82-6.19,2.41-9.82C409.87,624.22,407.51,622.63,403.28,622.78z"/>
<path class="st0" d="M681.53,510.33c-1.52-2.56-1.85-5.15-1.23-8.16c1.06-5.17,1.62-10.43,2.46-16.11
   c-1.43,0.56-2.42,1.08-3.48,1.33c-2.98,0.71-3.95,2.72-4.12,5.56c-0.17,2.81-0.67,5.6-1.08,8.85c-3.15-2.25-5.87-4.29-8.71-6.15
   c-0.84-0.55-2.16-0.97-3.05-0.72c-1.88,0.54-3.63,1.56-5.88,2.58c1.21,0.89,2.07,1.58,2.99,2.19c3.86,2.61,7.82,5.07,11.55,7.84
   c1.49,1.11,2.71,2.78,3.65,4.42c1.35,2.35,2.33,4.92,3.45,7.36c6.51-2.02,6.51-2.02,4.03-7.69
   C681.92,511.2,681.77,510.74,681.53,510.33z"/>
<path class="st0" d="M597.71,530.06c-0.98-2.06-1.8-3.8-2.65-5.6c-7.44,3.29-14.54,6.42-21.87,9.66c0.94,2.04,1.74,3.79,2.59,5.62
   c2.74-1.14,5.17-2.15,7.83-3.26c3.08,6.93,6.07,13.65,9.15,20.58c2.19-0.99,4.05-1.84,6.09-2.76c-3.05-6.99-5.99-13.74-8.98-20.62
   C592.65,532.4,595.1,531.27,597.71,530.06z"/>
<path class="st0" d="M640.41,529.25c-3.12-7.03-6.15-13.83-9.23-20.76c-2.21,1.05-4.06,1.92-6.09,2.88
   c3.91,8.89,7.68,17.47,11.61,26.39c6.62-2.92,12.82-5.65,19.19-8.46c-0.97-2.11-1.74-3.8-2.59-5.65
   C648.89,525.56,644.75,527.37,640.41,529.25z"/>
<path class="st0" d="M262.8,670.57c4.01,9.08,7.83,17.73,11.73,26.55c2.27-1.04,4.13-1.89,6.18-2.82
   c-3.93-8.95-7.73-17.62-11.61-26.45C266.9,668.79,265.01,669.61,262.8,670.57z"/>
<path class="st0" d="M726.14,466.83c3.97,9.01,7.75,17.6,11.63,26.4c2.12-0.93,3.99-1.76,6.16-2.71
   c-3.89-8.86-7.69-17.52-11.59-26.41C730.17,465.06,728.29,465.89,726.14,466.83z"/>
<path class="st0" d="M407.77,606.83c3.96,8.99,7.78,17.63,11.66,26.43c2.23-0.98,4.1-1.8,6.16-2.7
   c-3.9-8.88-7.68-17.47-11.61-26.39C411.75,605.12,409.88,605.92,407.77,606.83z"/>
<path class="st0" d="M562.83,538.68c3.9,8.87,7.71,17.51,11.62,26.39c2.19-0.97,4.06-1.79,6.2-2.73
   c-3.98-9.01-7.77-17.58-11.66-26.37C566.85,536.92,564.97,537.74,562.83,538.68z"/>
<path class="st0" d="M521.29,556.98c3.89,8.84,7.7,17.49,11.59,26.34c2.19-0.94,4.07-1.75,6.19-2.66
   c-3.92-8.92-7.73-17.57-11.62-26.41C525.31,555.2,523.43,556.03,521.29,556.98z"/>
<path class="st0" d="M800,425.34c-0.85,2.55-2.73,2.51-4.78,2.6c-4.05,0.18-6.06,2.37-5.62,6.17c0.08,0.67,0.73,1.78,1.16,1.81
   c0.92,0.05,2.59-0.31,2.71-0.8c0.62-2.61,2.51-2.43,4.44-2.51c4.86-0.22,6.84-3.19,5.19-8.3
   C802.05,424.63,800.21,424.71,800,425.34z"/>
<path class="st0" d="M436.93,586.54c-1.93,0-3.85,0-5.77,0c-0.44,2.84-0.85,5.44-1.31,8.36
   C434.66,593.64,436.29,591.62,436.93,586.54z"/>
</g>
</svg>